<?xml version="1.0" standalone="no"?>
<!DOCTYPE svg PUBLIC "-//W3C//DTD SVG 20010904//EN"
 "http://www.w3.org/TR/2001/REC-SVG-20010904/DTD/svg10.dtd">
<svg version="1.0" xmlns="http://www.w3.org/2000/svg"
 width="260.000000pt" height="260.000000pt" viewBox="0 0 260.000000 260.000000"
 preserveAspectRatio="xMidYMid meet">
<metadata>
Created by potrace 1.11, written by Peter Selinger 2001-2013
</metadata>
<g transform="translate(0.000000,260.000000) scale(0.100000,-0.100000)"
fill="#000000" stroke="none">
<path d="M758 1830 c-14 -30 -134 -288 -267 -573 -132 -285 -241 -520 -241
-523 0 -3 39 -3 87 -2 l87 3 58 125 58 125 235 0 236 0 56 -127 56 -128 88 0
89 0 -14 33 c-7 17 -116 259 -241 537 -125 278 -235 523 -245 545 l-17 40 -25
-55z m71 -423 c24 -56 59 -137 77 -179 l33 -78 -164 0 -163 0 81 180 c45 98
84 179 87 179 3 1 25 -45 49 -102z"/>
<path d="M1630 1277 l0 -547 163 0 c241 0 298 14 384 93 65 60 86 106 91 203
4 72 1 89 -20 136 -27 59 -83 119 -127 138 l-29 11 33 49 c80 119 58 283 -52
380 -61 53 -120 68 -294 76 l-149 7 0 -546z m320 364 c89 -44 94 -201 8 -264
-18 -13 -49 -21 -97 -25 l-71 -5 0 155 c0 85 3 158 8 162 11 12 113 -4 152
-23z m75 -456 c61 -30 88 -77 83 -145 -8 -107 -69 -150 -220 -153 l-93 -2 -3
164 -3 163 98 -4 c71 -3 109 -9 138 -23z"/>
</g>
</svg>
